<svg width="192" height="48" viewBox="0 0 192 48" fill="none" xmlns="http://www.w3.org/2000/svg">
<path d="M60 41.9459L72.9118 6H82.0556L95.0177 41.9459H85.673L83.5628 35.4605H71.0027L68.9428 41.9459H60ZM73.0626 29.0758H81.503L78.79 20.3784C78.1871 18.5182 77.3833 15.3007 77.3833 15.3007H77.2828C77.2828 15.3007 76.4287 18.5182 75.8258 20.3784L73.0626 29.0758Z" fill="white"/>
<path d="M97.9407 41.9459V16.2056H105.828V19.7248H105.979C107.888 16.9597 110.35 15.4515 113.917 15.4515C119.544 15.4515 122.86 19.4734 122.86 25.2047V41.9459H114.671V26.8637C114.671 24.1489 113.314 22.2888 110.652 22.2888C107.939 22.2888 106.13 24.5511 106.13 27.7184V41.9459H97.9407Z" fill="white"/>
<path d="M139.654 42.7C131.163 42.7 125.938 36.8179 125.938 29.0255C125.938 21.3336 131.314 15.4515 139.151 15.4515C142.819 15.4515 145.733 16.6581 147.943 18.669C151.008 21.4844 152.515 25.9588 152.465 31.1873H133.976C134.479 34.6562 136.388 36.8179 139.754 36.8179C141.914 36.8179 143.321 35.8627 144.025 34.254H152.013C151.46 36.5666 149.953 38.7786 147.692 40.3371C145.532 41.8453 142.919 42.7 139.654 42.7ZM134.027 26.3107H144.175C143.874 23.244 141.965 21.2833 139.302 21.2833C136.187 21.2833 134.579 23.244 134.027 26.3107Z" fill="white"/>
<path d="M160.399 41.9459L152.511 16.2056H160.851L163.664 26.8637C164.217 28.9249 164.82 31.8408 164.82 31.8408H164.92C164.92 31.8408 165.523 28.8747 166.076 26.7129L168.789 16.2056H175.722L178.535 26.7129C179.088 28.9249 179.741 31.8911 179.741 31.8911H179.842C179.842 31.8911 180.495 28.9249 181.048 26.8637L183.911 16.2056H192L184.112 41.9459H176.425L173.411 30.2823C172.858 28.2714 172.306 25.6571 172.306 25.6571H172.205C172.205 25.6571 171.602 28.2714 171.05 30.2823L167.985 41.9459H160.399Z" fill="white"/>
<path d="M20.7744 48C3.6667 48 4.13525e-06 44.3333 5.63085e-06 27.2256L6.19483e-06 20.7744C7.69044e-06 3.66669 3.6667 -6.10431e-08 20.7744 1.43456e-06L27.2256 1.99854e-06C44.3333 3.49414e-06 48 3.6667 48 20.7744L48 27.2256C48 44.3333 44.3333 48 27.2256 48L20.7744 48ZM27.2256 46.4C31.466 46.4 34.7643 46.1707 37.3418 45.5979C39.9011 45.0291 41.6505 44.1431 42.8968 42.8968C44.1431 41.6505 45.0291 39.9011 45.5979 37.3418C46.1707 34.7643 46.4 31.466 46.4 27.2256L46.4 20.7744C46.4 16.534 46.1707 13.2357 45.5979 10.6582C45.0291 8.09891 44.1431 6.34952 42.8968 5.10323C41.6505 3.85693 39.9011 2.97094 37.3418 2.40215C34.7643 1.82933 31.466 1.6 27.2256 1.6L20.7744 1.6C16.534 1.6 13.2357 1.82933 10.6582 2.40215C8.09892 2.97094 6.34952 3.85693 5.10323 5.10322C3.85694 6.34951 2.97094 8.09891 2.40216 10.6582C1.82933 13.2357 1.60001 16.534 1.6 20.7744L1.6 27.2256C1.6 31.466 1.82933 34.7643 2.40215 37.3418C2.97094 39.9011 3.85693 41.6505 5.10323 42.8968C6.34952 44.1431 8.09892 45.0291 10.6582 45.5978C13.2357 46.1707 16.534 46.4 20.7744 46.4L27.2256 46.4Z" fill="white"/>
<path d="M35.9127 21.2097L33.7777 19.0747C33.4904 18.7874 33.0247 18.7874 32.7374 19.0747L30.6024 21.2097C30.3151 21.497 29.8493 21.497 29.562 21.2097L27.4271 19.0747C27.1398 18.7874 27.1398 18.3216 27.4271 18.0344L29.5621 15.8994C29.8493 15.6121 29.8493 15.1463 29.5621 14.859L27.4271 12.7241C27.1398 12.4368 27.1398 11.971 27.4271 11.6837L29.5621 9.54876C29.8493 9.26147 30.3151 9.26147 30.6024 9.54875L32.7374 11.6837C33.0247 11.971 33.4904 11.971 33.7777 11.6837L35.9127 9.54876C36.2 9.26147 36.6658 9.26147 36.953 9.54876L39.088 11.6837C39.3753 11.971 39.3753 12.4368 39.088 12.7241L36.953 14.859C36.6658 15.1463 36.6658 15.6121 36.953 15.8994L39.088 18.0344C39.3753 18.3216 39.3753 18.7874 39.088 19.0747L36.953 21.2097C36.6658 21.497 36.2 21.497 35.9127 21.2097Z" fill="#08E929"/>
<path d="M8.9873 20.2471L8.9873 9.76423C8.9873 9.35795 9.31666 9.0286 9.72294 9.0286L20.2978 9.0286C20.704 9.0286 21.0334 9.35795 21.0334 9.76424L21.0334 20.2471C21.0334 20.6534 20.704 20.9827 20.2978 20.9827L9.72294 20.9827C9.31666 20.9827 8.9873 20.6534 8.9873 20.2471Z" fill="#00C4FF"/>
<path fill-rule="evenodd" clip-rule="evenodd" d="M33.2173 26.1322C29.6877 26.1322 26.8264 28.9935 26.8264 32.5231C26.8264 36.0526 29.6877 38.9139 33.2173 38.9139C36.7469 38.9139 39.6081 36.0526 39.6081 32.5231C39.6081 28.9935 36.7469 26.1322 33.2173 26.1322Z" fill="#FF8800"/>
<path d="M13.532 26.5883C13.9954 25.157 16.025 25.157 16.4884 26.5883L17.1227 28.5471C17.3299 29.187 17.9269 29.6206 18.6009 29.6206H20.6723C22.1749 29.6206 22.802 31.5374 21.5888 32.422L19.8977 33.6549C19.3564 34.0496 19.1299 34.7463 19.336 35.3828L19.9783 37.3665C20.4412 38.7961 18.7993 39.9808 17.5836 39.0945L15.9267 37.8865C15.3808 37.4885 14.6396 37.4885 14.0937 37.8865L12.4368 39.0945C11.2211 39.9808 9.57923 38.7961 10.0421 37.3665L10.6844 35.3828C10.8905 34.7463 10.6641 34.0496 10.1227 33.6549L8.43165 32.422C7.21837 31.5374 7.84548 29.6206 9.34816 29.6206H11.4195C12.0935 29.6206 12.6906 29.187 12.8977 28.5471L13.532 26.5883Z" fill="#FF2ABF"/>
</svg>
