<svg width="1920" height="480" viewBox="0 0 1920 480" fill="none" xmlns="http://www.w3.org/2000/svg">
<path d="M600 419.459L729.118 60.0001H820.556L950.177 419.459H856.73L835.628 354.606H710.027L689.428 419.459H600ZM730.626 290.758H815.03L787.9 203.784C781.871 185.182 773.833 153.007 773.833 153.007H772.828C772.828 153.007 764.287 185.182 758.258 203.784L730.626 290.758Z" fill="#48433E"/>
<path d="M979.407 419.459V162.056H1058.28V197.248H1059.79C1078.88 169.597 1103.5 154.515 1139.17 154.515C1195.44 154.515 1228.6 194.734 1228.6 252.047V419.459H1146.71V268.637C1146.71 241.489 1133.14 222.888 1106.52 222.888C1079.39 222.888 1061.3 245.511 1061.3 277.184V419.459H979.407Z" fill="#48433E"/>
<path d="M1396.54 427C1311.63 427 1259.38 368.18 1259.38 290.255C1259.38 213.336 1313.14 154.515 1391.51 154.515C1428.19 154.515 1457.33 166.581 1479.43 186.69C1510.08 214.844 1525.15 259.588 1524.65 311.873H1339.76C1344.79 346.562 1363.88 368.18 1397.54 368.18C1419.15 368.18 1433.21 358.627 1440.25 342.54H1520.13C1514.6 365.666 1499.53 387.786 1476.92 403.371C1455.32 418.453 1429.19 427 1396.54 427ZM1340.27 263.107H1441.75C1438.74 232.44 1419.65 212.833 1393.02 212.833C1361.87 212.833 1345.79 232.44 1340.27 263.107Z" fill="#48433E"/>
<path d="M1603.99 419.459L1525.11 162.056H1608.51L1636.64 268.637C1642.17 289.249 1648.2 318.408 1648.2 318.408H1649.2C1649.2 318.408 1655.23 288.747 1660.76 267.129L1687.89 162.056H1757.22L1785.36 267.129C1790.88 289.249 1797.41 318.911 1797.41 318.911H1798.42C1798.42 318.911 1804.95 289.249 1810.48 268.637L1839.11 162.056H1920L1841.12 419.459H1764.25L1734.11 302.823C1728.58 282.714 1723.06 256.571 1723.06 256.571H1722.05C1722.05 256.571 1716.02 282.714 1710.5 302.823L1679.85 419.459H1603.99Z" fill="#48433E"/>
<path d="M207.744 480C36.667 480 3.20553e-06 443.333 1.81616e-05 272.256L2.38014e-05 207.744C3.87574e-05 36.667 36.667 2.22778e-05 207.744 3.72338e-05L272.256 4.28736e-05C443.333 5.78296e-05 480 36.667 480 207.744L480 272.256C480 443.333 443.333 480 272.256 480L207.744 480Z" fill="#48433E"/>
<path d="M359.127 212.097L337.777 190.747C334.905 187.874 330.247 187.874 327.374 190.747L306.024 212.097C303.151 214.97 298.494 214.97 295.621 212.097L274.271 190.747C271.398 187.874 271.398 183.217 274.271 180.344L295.621 158.994C298.494 156.121 298.494 151.463 295.621 148.591L274.271 127.241C271.398 124.368 271.398 119.71 274.271 116.837L295.621 95.4877C298.494 92.6148 303.151 92.6148 306.024 95.4876L327.374 116.837C330.247 119.71 334.905 119.71 337.777 116.837L359.127 95.4877C362 92.6148 366.658 92.6148 369.531 95.4877L390.88 116.837C393.753 119.71 393.753 124.368 390.88 127.241L369.531 148.591C366.658 151.463 366.658 156.121 369.531 158.994L390.88 180.344C393.753 183.217 393.753 187.874 390.88 190.747L369.531 212.097C366.658 214.97 362 214.97 359.127 212.097Z" fill="#08E929"/>
<path d="M89.8721 202.471L89.8721 97.6423C89.8721 93.5795 93.1657 90.286 97.2285 90.286L202.977 90.286C207.04 90.286 210.333 93.5795 210.333 97.6424L210.333 202.471C210.333 206.534 207.039 209.827 202.977 209.827L97.2285 209.827C93.1657 209.827 89.8721 206.534 89.8721 202.471Z" fill="#0095FF"/>
<path fill-rule="evenodd" clip-rule="evenodd" d="M332.173 261.322C296.878 261.322 268.265 289.935 268.265 325.231C268.265 360.527 296.878 389.139 332.173 389.139C367.469 389.139 396.082 360.527 396.082 325.231C396.082 289.935 367.469 261.322 332.173 261.322Z" fill="#FF8800"/>
<path d="M135.321 265.883C139.955 251.57 160.25 251.57 164.885 265.883L171.227 285.472C173.299 291.87 179.27 296.206 186.009 296.206H206.723C221.75 296.206 228.021 315.374 215.888 324.22L198.978 336.549C193.564 340.496 191.299 347.463 193.361 353.828L199.784 373.666C204.412 387.961 187.993 399.808 175.837 390.945L159.268 378.865C153.809 374.885 146.397 374.885 140.938 378.865L124.369 390.945C112.212 399.808 95.7929 387.961 100.422 373.666L106.845 353.828C108.906 347.463 106.641 340.496 101.228 336.549L84.3171 324.22C72.1842 315.374 78.4553 296.206 93.4821 296.206H114.196C120.935 296.206 126.906 291.87 128.978 285.472L135.321 265.883Z" fill="#FF00EE"/>
</svg>
