<svg width="16" height="16" viewBox="0 0 16 16" fill="none" xmlns="http://www.w3.org/2000/svg">
<g clip-path="url(#clip0_12_214)">
<path d="M15.9538 7.99423C13.7672 7.96767 12.0016 6.19142 12.0016 3.9986C9.80881 3.9986 8.03287 2.23329 8.006 0.047041C7.15412 -0.082334 6.28318 0.056416 5.51475 0.447666L3.35443 1.54829C2.57675 1.94461 1.94455 2.57703 1.5485 3.35485L0.451621 5.50735C0.0543878 6.28715 -0.0858503 7.17266 0.0509956 8.03704L0.428496 10.4205C0.565206 11.284 0.971697 12.0821 1.58975 12.7005L3.30131 14.4117C3.9174 15.028 4.71281 15.4334 5.5735 15.5699L7.97068 15.9495C8.83037 16.0858 9.71131 15.9461 10.4872 15.5508L12.6476 14.4505C13.4252 14.0541 14.0574 13.4217 14.4535 12.6439L15.5504 10.4914C15.9429 9.72142 16.0819 8.84829 15.9538 7.99423ZM5.50006 11.4999C4.94787 11.4999 4.50006 11.052 4.50006 10.4999C4.50006 9.94767 4.94787 9.49985 5.50006 9.49985C6.05225 9.49985 6.50006 9.94767 6.50006 10.4999C6.50006 11.052 6.05225 11.4999 5.50006 11.4999ZM6.50006 6.49985C5.94787 6.49985 5.50006 6.05204 5.50006 5.49985C5.50006 4.94767 5.94787 4.49985 6.50006 4.49985C7.05225 4.49985 7.50006 4.94767 7.50006 5.49985C7.50006 6.05204 7.05225 6.49985 6.50006 6.49985ZM11.5001 10.4999C10.9479 10.4999 10.5001 10.052 10.5001 9.49985C10.5001 8.94767 10.9479 8.49985 11.5001 8.49985C12.0522 8.49985 12.5001 8.94767 12.5001 9.49985C12.5001 10.052 12.0522 10.4999 11.5001 10.4999Z" fill="white"/>
</g>
<defs>
<clipPath id="clip0_12_214">
<rect width="16" height="16" fill="white"/>
</clipPath>
</defs>
</svg>
