<svg width="48" height="48" viewBox="0 0 48 48" fill="none" xmlns="http://www.w3.org/2000/svg">
<path d="M14.7147 16.6641L2.89682 28.482L12.1962 37.7812L24.014 25.9634L35.8319 37.7812L45.1312 28.4819L33.3133 16.6641L41.9305 8.04684C45.706 12.2873 48 17.8757 48 24C48 37.2548 37.2548 48 24 48C10.7452 48 0 37.2548 0 24C0 17.8686 2.29929 12.2742 6.08263 8.03201L14.7147 16.6641Z" fill="white"/>
<path d="M24 0C26.2492 0 28.4262 0.309485 30.4906 0.888062L24.014 7.36473L17.5312 0.881927C19.5892 0.307283 21.7587 0 24 0Z" fill="white"/>
</svg>
