<svg width="48" height="48" viewBox="0 0 48 48" fill="none" xmlns="http://www.w3.org/2000/svg">
<path d="M37.5107 2.36865C43.8428 6.68951 48 13.9623 48 22.2065C48 32.8628 41.054 41.8942 31.4434 45.0269C31.8254 44.1145 32.0195 43.1068 32.0195 42.0015C32.0195 39.9431 31.3566 38.2198 30.0322 36.8315C28.7078 35.4434 27.0289 34.7495 24.9951 34.7495C22.9612 34.7495 21.2585 35.4434 19.8867 36.8315C18.5623 38.2198 17.8995 39.9431 17.8994 42.0015C17.8994 43.3568 18.1883 44.5663 18.7627 45.6313C8.02677 43.2416 0 33.6624 0 22.2065C0 15.0551 3.12842 8.63468 8.09082 4.23779C7.99936 4.40093 7.91092 4.5662 7.82422 4.73291L15.416 12.2017C16.3148 10.7176 17.4505 9.47261 18.8223 8.46729C20.194 7.46204 21.6838 6.95949 23.292 6.95947C24.2378 6.95947 25.042 7.12648 25.7041 7.46143C26.4136 7.79653 26.9575 8.3 27.3359 8.97021C27.7616 9.59255 27.9746 10.3585 27.9746 11.2681C27.9745 12.1296 27.7616 12.8958 27.3359 13.5659C26.9576 14.2358 26.3903 14.7621 25.6338 15.145C24.877 15.4801 24.0012 15.6479 23.0078 15.6479H19.4609L20.2412 29.2915H29.749L30.0742 24.311C31.2551 23.8505 32.3768 23.2853 33.4385 22.6138C35.3779 21.417 36.9155 19.8129 38.0508 17.8022C39.2332 15.7917 39.8242 13.3023 39.8242 10.3345C39.8242 7.55793 39.1383 5.0444 37.7666 2.79443C37.6836 2.65051 37.598 2.50883 37.5107 2.36865Z" fill="white"/>
</svg>
