<svg width="120" height="120" viewBox="0 0 120 120" fill="none" xmlns="http://www.w3.org/2000/svg">
<path d="M51.936 120C9.16675 120 8.43078e-06 110.833 1.21698e-05 68.064L1.35797e-05 51.936C1.73187e-05 9.16674 9.16676 -2.05996e-06 51.9361 1.67905e-06L68.064 3.089e-06C110.833 6.82801e-06 120 9.16675 120 51.936L120 68.064C120 110.833 110.833 120 68.064 120L51.936 120ZM68.064 116C78.665 116 86.9108 115.427 93.3545 113.995C99.7527 112.573 104.126 110.358 107.242 107.242C110.358 104.126 112.573 99.7527 113.995 93.3545C115.427 86.9108 116 78.665 116 68.064L116 51.936C116 41.335 115.427 33.0892 113.995 26.6455C112.573 20.2473 110.358 15.8738 107.242 12.7581C104.126 9.64233 99.7527 7.42734 93.3545 6.00538C86.9108 4.57332 78.665 4 68.064 4L51.9361 4C41.335 4 33.0892 4.57332 26.6455 6.00537C20.2473 7.42734 15.8738 9.64232 12.7581 12.7581C9.64234 15.8738 7.42735 20.2473 6.00539 26.6455C4.57333 33.0892 4.00001 41.335 4.00001 51.936L4.00001 68.064C4.00001 78.665 4.57333 86.9108 6.00538 93.3545C7.42735 99.7527 9.64234 104.126 12.7581 107.242C15.8738 110.358 20.2473 112.573 26.6455 113.995C33.0892 115.427 41.335 116 51.936 116L68.064 116Z" fill="white"/>
<path d="M89.7816 53.0241L84.4442 47.6867C83.726 46.9685 82.5615 46.9685 81.8433 47.6867L76.5059 53.0241C75.7877 53.7423 74.6232 53.7423 73.905 53.0241L68.5676 47.6867C67.8494 46.9685 67.8494 45.804 68.5676 45.0858L73.905 39.7484C74.6232 39.0302 74.6232 37.8657 73.905 37.1475L68.5676 31.8101C67.8494 31.0919 67.8494 29.9274 68.5676 29.2092L73.905 23.8718C74.6232 23.1536 75.7877 23.1536 76.5059 23.8718L81.8433 29.2092C82.5615 29.9274 83.726 29.9274 84.4442 29.2092L89.7816 23.8718C90.4998 23.1536 91.6643 23.1536 92.3825 23.8718L97.7199 29.2092C98.4381 29.9274 98.4381 31.0919 97.7199 31.8101L92.3825 37.1475C91.6643 37.8657 91.6643 39.0302 92.3825 39.7484L97.7199 45.0858C98.4381 45.804 98.4381 46.9685 97.7199 47.6867L92.3825 53.0241C91.6643 53.7423 90.4998 53.7423 89.7816 53.0241Z" fill="#08E929"/>
<path d="M22.468 50.6178L22.468 24.4106C22.468 23.3949 23.2914 22.5715 24.3071 22.5715L50.7442 22.5715C51.7599 22.5715 52.5832 23.3949 52.5832 24.4106L52.5832 50.6178C52.5832 51.6335 51.7599 52.4569 50.7441 52.4569L24.3071 52.4569C23.2914 52.4569 22.468 51.6335 22.468 50.6178Z" fill="#0095FF"/>
<path fill-rule="evenodd" clip-rule="evenodd" d="M83.0433 65.3306C74.2194 65.3306 67.0662 72.4838 67.0662 81.3077C67.0662 90.1317 74.2194 97.2849 83.0433 97.2849C91.8673 97.2849 99.0205 90.1317 99.0205 81.3077C99.0205 72.4838 91.8673 65.3306 83.0433 65.3306Z" fill="#FF8800"/>
<path d="M33.8301 66.4705C34.9887 62.8923 40.0626 62.8923 41.2211 66.4705L42.8068 71.3677C43.3248 72.9674 44.8175 74.0514 46.5023 74.0514H51.6808C55.4375 74.0514 57.0052 78.8434 53.972 81.0548L49.7444 84.1371C48.391 85.1238 47.8248 86.8655 48.3401 88.4569L49.9459 93.4162C51.1031 96.9901 46.9984 99.9518 43.9591 97.736L39.8169 94.716C38.4522 93.721 36.5991 93.721 35.2344 94.716L31.0922 97.736C28.0529 99.9519 23.9482 96.9901 25.1054 93.4162L26.7112 88.4569C27.2264 86.8655 26.6603 85.1238 25.3069 84.1371L21.0793 81.0548C18.046 78.8434 19.6138 74.0514 23.3705 74.0514H28.549C30.2338 74.0514 31.7265 72.9674 32.2445 71.3677L33.8301 66.4705Z" fill="#FF00EE"/>
</svg>
