<svg width="48" height="48" viewBox="0 0 48 48" fill="none" xmlns="http://www.w3.org/2000/svg">
<path d="M24 48C37.2548 48 48 37.2548 48 24C48 10.7452 37.2548 0 24 0C21.4579 0 19.0082 0.395203 16.7089 1.12753C22.7638 1.628 27.6735 3.59483 31.795 6.90884L25.6432 15.6133C21.5843 12.7542 17.1448 11.2293 13.2127 11.2293C10.2319 11.2293 8.77326 12.5 8.77326 14.0884V14.2155C8.77326 16.2486 10.2954 17.1381 16.4472 18.5359C26.6579 20.7597 33 24.0635 33 32.3867V32.5138C33 41.0596 26.6598 46.3452 16.9347 46.9432C19.1684 47.6302 21.541 48 24 48Z" fill="white"/>
<path d="M1.19943 31.5133C5.54979 34.9562 10.3979 36.7707 15.4959 36.7707C18.7937 36.7707 20.5695 35.6271 20.5695 33.721V33.5939C20.5695 31.7514 19.1108 30.7348 13.0859 29.337C7.71137 28.1084 3.03438 26.7154 0 24.0591C0.00627519 26.662 0.426907 29.1676 1.19943 31.5133Z" fill="white"/>
</svg>
