<svg width="64" height="64" viewBox="0 0 64 64" fill="none" xmlns="http://www.w3.org/2000/svg">
<path d="M27.6992 64C4.88893 64 4.2421e-06 59.1111 6.23624e-06 36.3008L6.98821e-06 27.6992C8.98235e-06 4.88893 4.88894 -1.35296e-06 27.6992 6.41183e-07L36.3008 1.39315e-06C59.1111 3.38729e-06 64 4.88893 64 27.6992L64 36.3008C64 59.1111 59.1111 64 36.3008 64L27.6992 64Z" fill="#48433E"/>
<path d="M47.8835 28.2795L45.0369 25.4329C44.6538 25.0498 44.0328 25.0498 43.6497 25.4329L40.8031 28.2795C40.4201 28.6625 39.799 28.6625 39.416 28.2795L36.5694 25.4329C36.1863 25.0498 36.1863 24.4288 36.5694 24.0457L39.416 21.1991C39.799 20.8161 39.799 20.195 39.416 19.812L36.5694 16.9653C36.1863 16.5823 36.1863 15.9613 36.5694 15.5782L39.416 12.7316C39.799 12.3485 40.4201 12.3485 40.8031 12.7316L43.6497 15.5782C44.0328 15.9613 44.6538 15.9613 45.0369 15.5782L47.8835 12.7316C48.2665 12.3485 48.8876 12.3485 49.2706 12.7316L52.1173 15.5782C52.5003 15.9613 52.5003 16.5823 52.1173 16.9654L49.2706 19.812C48.8876 20.195 48.8876 20.8161 49.2706 21.1991L52.1173 24.0457C52.5003 24.4288 52.5003 25.0498 52.1173 25.4329L49.2706 28.2795C48.8876 28.6625 48.2665 28.6625 47.8835 28.2795Z" fill="#08E929"/>
<path d="M11.9832 26.9961L11.9832 13.0189C11.9832 12.4772 12.4223 12.0381 12.964 12.0381L27.0638 12.0381C27.6055 12.0381 28.0446 12.4772 28.0446 13.0189L28.0446 26.9961C28.0446 27.5378 27.6055 27.9769 27.0638 27.9769L12.964 27.9769C12.4223 27.9769 11.9832 27.5378 11.9832 26.9961Z" fill="#0095FF"/>
<path fill-rule="evenodd" clip-rule="evenodd" d="M44.2897 34.8428C39.5836 34.8428 35.7686 38.6578 35.7686 43.3639C35.7686 48.07 39.5836 51.8851 44.2897 51.8851C48.9958 51.8851 52.8109 48.07 52.8109 43.3639C52.8109 38.6578 48.9958 34.8428 44.2897 34.8428Z" fill="#FF8800"/>
<path d="M18.0426 35.4512C18.6605 33.5428 21.3666 33.5428 21.9845 35.4512L22.8302 38.063C23.1064 38.9162 23.9025 39.4943 24.8011 39.4943H27.5629C29.5665 39.4943 30.4026 42.05 28.7849 43.2295L26.5302 44.8734C25.8084 45.3996 25.5064 46.3285 25.7813 47.1773L26.6377 49.8222C27.2548 51.7283 25.0656 53.3079 23.4447 52.1261L21.2355 50.5154C20.5077 49.9848 19.5194 49.9848 18.7915 50.5154L16.5823 52.1261C14.9614 53.3079 12.7722 51.7283 13.3894 49.8222L14.2458 47.1773C14.5206 46.3285 14.2187 45.3996 13.4969 44.8734L11.2421 43.2295C9.62441 42.05 10.4606 39.4943 12.4641 39.4943H15.226C16.1246 39.4943 16.9207 38.9162 17.1969 38.063L18.0426 35.4512Z" fill="#FF00EE"/>
</svg>
