<svg width="17" height="16" viewBox="0 0 17 16" fill="none" xmlns="http://www.w3.org/2000/svg">
<path d="M6.75936 1.23695C7.30507 -0.412319 9.69493 -0.412318 10.2406 1.23696L10.9875 3.49419C11.2315 4.23152 11.9346 4.73114 12.7281 4.73114H15.1673C16.9367 4.73114 17.6752 6.93989 16.2465 7.95919L14.2552 9.37989C13.6178 9.83468 13.3511 10.6375 13.5938 11.371L14.3501 13.6568C14.8952 15.3041 12.9618 16.6693 11.5303 15.6479L9.57922 14.2559C8.9364 13.7973 8.0636 13.7973 7.42078 14.2559L5.46973 15.6479C4.03821 16.6693 2.10483 15.3041 2.64988 13.6568L3.40622 11.371C3.64893 10.6375 3.38225 9.83468 2.7448 9.37989L0.753513 7.95919C-0.675175 6.93989 0.0632664 4.73114 1.83273 4.73114H4.27185C5.06545 4.73114 5.76852 4.23152 6.01249 3.49419L6.75936 1.23695Z" fill="white"/>
</svg>
