<svg width="32" height="32" viewBox="0 0 32 32" fill="none" xmlns="http://www.w3.org/2000/svg">
<path d="M18.1504 0C29.5555 9.97069e-07 32 2.44446 32 13.8496V18.1504C32 29.5555 29.5555 32 18.1504 32H13.8496C2.44446 32 -4.94095e-07 29.5555 0 18.1504V13.8496C9.97069e-07 2.44446 2.44447 -7.3258e-07 13.8496 0H18.1504ZM10.9922 17.7256C10.6832 16.7714 9.33044 16.7714 9.02148 17.7256L8.59863 19.0312C8.46053 19.4578 8.06248 19.747 7.61328 19.7471H6.23242C5.23074 19.7471 4.81254 21.0245 5.62109 21.6143L6.74805 22.4365C7.10893 22.6996 7.26045 23.1645 7.12305 23.5889L6.69434 24.9111C6.38602 25.8641 7.48062 26.6533 8.29102 26.0625L9.39551 25.2578C9.75944 24.9925 10.2542 24.9925 10.6182 25.2578L11.7227 26.0625C12.5331 26.6533 13.6276 25.864 13.3193 24.9111L12.8906 23.5889C12.7532 23.1645 12.9047 22.6996 13.2656 22.4365L14.3926 21.6143C15.2011 21.0245 14.783 19.7471 13.7812 19.7471H12.4004C11.9512 19.747 11.5531 19.4578 11.415 19.0312L10.9922 17.7256ZM22.1445 17.4219C19.7918 17.4221 17.885 19.3289 17.8848 21.6816C17.8848 24.0346 19.7916 25.9422 22.1445 25.9424C24.4976 25.9424 26.4053 24.0347 26.4053 21.6816C26.4051 19.3288 24.4974 17.4219 22.1445 17.4219ZM24.6357 6.36621C24.4442 6.1747 24.1329 6.17471 23.9414 6.36621L22.5186 7.78906C22.3271 7.98055 22.0167 7.98047 21.8252 7.78906L20.4014 6.36621C20.2098 6.17471 19.8995 6.1747 19.708 6.36621L18.2852 7.78906C18.0936 7.98059 18.0936 8.2909 18.2852 8.48242L19.708 9.90625C19.8994 10.0978 19.8995 10.4081 19.708 10.5996L18.2852 12.0225C18.0936 12.214 18.0936 12.5253 18.2852 12.7168L19.708 14.1396C19.8995 14.3312 20.2098 14.3311 20.4014 14.1396L21.8252 12.7168C22.0167 12.5253 22.327 12.5253 22.5186 12.7168L23.9414 14.1396C24.1329 14.3312 24.4442 14.3312 24.6357 14.1396L26.0586 12.7168C26.2501 12.5253 26.2501 12.214 26.0586 12.0225L24.6357 10.5996C24.4442 10.4081 24.4442 10.0978 24.6357 9.90625L26.0586 8.48242C26.25 8.29089 26.2501 7.98055 26.0586 7.78906L24.6357 6.36621ZM6.48145 6.01953C6.21081 6.01979 5.99121 6.23907 5.99121 6.50977V13.498C5.99121 13.7687 6.21081 13.988 6.48145 13.9883H13.5322C13.8029 13.988 14.0225 13.7688 14.0225 13.498V6.50977C14.0225 6.23906 13.8029 6.01977 13.5322 6.01953H6.48145Z" fill="white"/>
</svg>
